<mxfile host="app.diagrams.net" modified="2022-08-30T09:46:03.846Z" agent="5.0 (Windows NT 10.0; Win64; x64) AppleWebKit/537.36 (KHTML, like Gecko) Chrome/104.0.5112.102 Safari/537.36 Edg/104.0.1293.70" etag="huu4_m68cN1eZqkUl_nM" version="20.0.1" type="github">
  <diagram id="kgpKYQtTHZ0yAKxKKP6v" name="Page-1">
    <mxGraphModel dx="1497" dy="1652" grid="1" gridSize="10" guides="1" tooltips="1" connect="1" arrows="1" fold="1" page="1" pageScale="1" pageWidth="1100" pageHeight="850" math="0" shadow="0">
      <root>
        <mxCell id="0" />
        <mxCell id="1" parent="0" />
        <mxCell id="lxEsPna4k-PO0xknT9Wp-40" value="End User Experience" style="swimlane;swimlaneHead=0;swimlaneBody=0;connectable=0;fillColor=none;startSize=40;collapsible=0;recursiveResize=0;expand=0;fontStyle=1;" vertex="1" parent="1">
          <mxGeometry x="1310" y="-450" width="699" height="481" as="geometry">
            <mxRectangle width="699" height="481" as="alternateBounds" />
          </mxGeometry>
        </mxCell>
        <mxCell id="lxEsPna4k-PO0xknT9Wp-41" style="edgeStyle=orthogonalEdgeStyle;rounded=0;orthogonalLoop=1;jettySize=auto;html=1;" edge="1" parent="lxEsPna4k-PO0xknT9Wp-40" source="lxEsPna4k-PO0xknT9Wp-42" target="lxEsPna4k-PO0xknT9Wp-43">
          <mxGeometry relative="1" as="geometry" />
        </mxCell>
        <mxCell id="lxEsPna4k-PO0xknT9Wp-42" value="Drink latte" style="rounded=0;whiteSpace=wrap;html=1;" vertex="1" parent="lxEsPna4k-PO0xknT9Wp-40">
          <mxGeometry x="20" y="60" width="90" height="40" as="geometry" />
        </mxCell>
        <mxCell id="lxEsPna4k-PO0xknT9Wp-43" value="End" style="rounded=1;whiteSpace=wrap;html=1;arcSize=50;" vertex="1" parent="lxEsPna4k-PO0xknT9Wp-40">
          <mxGeometry x="20" y="120" width="90" height="40" as="geometry" />
        </mxCell>
        <mxCell id="lxEsPna4k-PO0xknT9Wp-83" value="tr" style="group;fillColor=#e1d5e7;strokeColor=#9673a6;container=0;" vertex="1" connectable="0" parent="1">
          <mxGeometry x="10" y="119" width="950" height="741" as="geometry" />
        </mxCell>
        <mxCell id="lxEsPna4k-PO0xknT9Wp-326" value="Data Encyrption" style="rounded=0;whiteSpace=wrap;html=1;" vertex="1" parent="1">
          <mxGeometry x="740" y="230" width="90" height="40" as="geometry" />
        </mxCell>
        <mxCell id="lxEsPna4k-PO0xknT9Wp-327" value="API connection with other platforms" style="rounded=0;whiteSpace=wrap;html=1;" vertex="1" parent="1">
          <mxGeometry x="740" y="280" width="90" height="40" as="geometry" />
        </mxCell>
        <mxCell id="lxEsPna4k-PO0xknT9Wp-329" value="Data Validation" style="rounded=0;whiteSpace=wrap;html=1;" vertex="1" parent="1">
          <mxGeometry x="391" y="282" width="90" height="40" as="geometry" />
        </mxCell>
        <mxCell id="lxEsPna4k-PO0xknT9Wp-330" value="" style="verticalLabelPosition=bottom;sketch=0;html=1;fillColor=#000099;strokeColor=#ffffff;verticalAlign=top;align=center;points=[[0,0.5,0],[0.125,0.25,0],[0.25,0,0],[0.5,0,0],[0.75,0,0],[0.875,0.25,0],[1,0.5,0],[0.875,0.75,0],[0.75,1,0],[0.5,1,0],[0.125,0.75,0]];pointerEvents=1;shape=mxgraph.cisco_safe.compositeIcon;bgIcon=mxgraph.cisco_safe.design.blank_device;resIcon=mxgraph.cisco_safe.design.client_firewall;gradientColor=#ffffff;" vertex="1" parent="1">
          <mxGeometry x="120" y="65" width="60" height="51" as="geometry" />
        </mxCell>
        <mxCell id="lxEsPna4k-PO0xknT9Wp-332" value="" style="verticalLabelPosition=bottom;sketch=0;html=1;fillColor=#000099;strokeColor=#ffffff;verticalAlign=top;align=center;points=[[0,0.5,0],[0.125,0.25,0],[0.25,0,0],[0.5,0,0],[0.75,0,0],[0.875,0.25,0],[1,0.5,0],[0.875,0.75,0],[0.75,1,0],[0.5,1,0],[0.125,0.75,0]];pointerEvents=1;shape=mxgraph.cisco_safe.compositeIcon;bgIcon=mxgraph.cisco_safe.design.blank_device;resIcon=mxgraph.cisco_safe.design.access_switch_2;" vertex="1" parent="1">
          <mxGeometry x="810" y="63" width="60" height="51" as="geometry" />
        </mxCell>
        <mxCell id="lxEsPna4k-PO0xknT9Wp-333" value="" style="verticalLabelPosition=bottom;sketch=0;html=1;fillColor=#000099;strokeColor=#ffffff;verticalAlign=top;align=center;points=[[0,0.5,0],[0.125,0.25,0],[0.25,0,0],[0.5,0,0],[0.75,0,0],[0.875,0.25,0],[1,0.5,0],[0.875,0.75,0],[0.75,1,0],[0.5,1,0],[0.125,0.75,0]];pointerEvents=1;shape=mxgraph.cisco_safe.compositeIcon;bgIcon=mxgraph.cisco_safe.design.blank_device;resIcon=mxgraph.cisco_safe.design.adaptive_security_appliance_2;" vertex="1" parent="1">
          <mxGeometry x="580" y="65" width="60" height="51" as="geometry" />
        </mxCell>
        <mxCell id="lxEsPna4k-PO0xknT9Wp-334" value="" style="verticalLabelPosition=bottom;sketch=0;html=1;fillColor=#000099;strokeColor=#ffffff;verticalAlign=top;align=center;points=[[0,0.5,0],[0.125,0.25,0],[0.25,0,0],[0.5,0,0],[0.75,0,0],[0.875,0.25,0],[1,0.5,0],[0.875,0.75,0],[0.75,1,0],[0.5,1,0],[0.125,0.75,0]];pointerEvents=1;shape=mxgraph.cisco_safe.compositeIcon;bgIcon=mxgraph.cisco_safe.design.blank_device;resIcon=mxgraph.cisco_safe.design.cisco_cloud_web_security;" vertex="1" parent="1">
          <mxGeometry x="350" y="65" width="60" height="51" as="geometry" />
        </mxCell>
        <mxCell id="lxEsPna4k-PO0xknT9Wp-335" value="" style="line;strokeWidth=1;html=1;" vertex="1" parent="1">
          <mxGeometry x="740" y="595" width="230" as="geometry" />
        </mxCell>
        <mxCell id="3nuBFxr9cyL0pnOWT2aG-1" value="" style="shape=table;childLayout=tableLayout;startSize=0;collapsible=0;recursiveResize=0;expand=0;fillColor=none;fontStyle=1" parent="1" vertex="1">
          <mxGeometry x="10" y="119" width="720" height="743" as="geometry" />
        </mxCell>
        <mxCell id="3nuBFxr9cyL0pnOWT2aG-3" value="Indicators" style="shape=tableRow;horizontal=0;swimlaneHead=0;swimlaneBody=0;top=0;left=0;bottom=0;right=0;fillColor=#f5f5f5;points=[[0,0.5],[1,0.5]];portConstraint=eastwest;startSize=30;collapsible=0;recursiveResize=0;expand=0;fontStyle=1;strokeColor=#666666;fontColor=#333333;" parent="3nuBFxr9cyL0pnOWT2aG-1" vertex="1">
          <mxGeometry width="720" height="470" as="geometry" />
        </mxCell>
        <mxCell id="3nuBFxr9cyL0pnOWT2aG-4" value="Development and design" style="swimlane;swimlaneHead=0;swimlaneBody=0;connectable=0;fillColor=#d5e8d4;startSize=40;collapsible=0;recursiveResize=0;expand=0;fontStyle=1;strokeColor=#82b366;" parent="3nuBFxr9cyL0pnOWT2aG-3" vertex="1">
          <mxGeometry x="30" width="230" height="470" as="geometry">
            <mxRectangle width="230" height="470" as="alternateBounds" />
          </mxGeometry>
        </mxCell>
        <mxCell id="lxEsPna4k-PO0xknT9Wp-338" value="" style="whiteSpace=wrap;html=1;strokeWidth=1;fillColor=#d5e8d4;strokeColor=#82b366;" vertex="1" parent="3nuBFxr9cyL0pnOWT2aG-4">
          <mxGeometry y="40" width="230" height="703" as="geometry" />
        </mxCell>
        <mxCell id="3nuBFxr9cyL0pnOWT2aG-9" value="Delivery Method" style="rounded=0;whiteSpace=wrap;html=1;" parent="3nuBFxr9cyL0pnOWT2aG-4" vertex="1">
          <mxGeometry x="10" y="60" width="90" height="40" as="geometry" />
        </mxCell>
        <mxCell id="lxEsPna4k-PO0xknT9Wp-67" value="Hosting Platform" style="rounded=0;whiteSpace=wrap;html=1;" vertex="1" parent="3nuBFxr9cyL0pnOWT2aG-4">
          <mxGeometry x="10" y="110" width="90" height="40" as="geometry" />
        </mxCell>
        <mxCell id="lxEsPna4k-PO0xknT9Wp-84" value="Data hosted" style="rounded=0;whiteSpace=wrap;html=1;" vertex="1" parent="3nuBFxr9cyL0pnOWT2aG-4">
          <mxGeometry x="10" y="160" width="90" height="40" as="geometry" />
        </mxCell>
        <mxCell id="lxEsPna4k-PO0xknT9Wp-101" value="Form Builder" style="rounded=0;whiteSpace=wrap;html=1;" vertex="1" parent="3nuBFxr9cyL0pnOWT2aG-4">
          <mxGeometry x="10" y="208.5" width="90" height="40" as="geometry" />
        </mxCell>
        <mxCell id="lxEsPna4k-PO0xknT9Wp-102" value="Online / Offline Performance" style="rounded=0;whiteSpace=wrap;html=1;" vertex="1" parent="3nuBFxr9cyL0pnOWT2aG-4">
          <mxGeometry x="10" y="258.5" width="90" height="40" as="geometry" />
        </mxCell>
        <mxCell id="lxEsPna4k-PO0xknT9Wp-104" value="Available question types" style="rounded=0;whiteSpace=wrap;html=1;" vertex="1" parent="3nuBFxr9cyL0pnOWT2aG-4">
          <mxGeometry x="120" y="60" width="90" height="40" as="geometry" />
        </mxCell>
        <mxCell id="lxEsPna4k-PO0xknT9Wp-105" value="License Type" style="rounded=0;whiteSpace=wrap;html=1;" vertex="1" parent="3nuBFxr9cyL0pnOWT2aG-4">
          <mxGeometry x="120" y="110" width="90" height="40" as="geometry" />
        </mxCell>
        <mxCell id="lxEsPna4k-PO0xknT9Wp-106" value="Compatability" style="rounded=0;whiteSpace=wrap;html=1;" vertex="1" parent="3nuBFxr9cyL0pnOWT2aG-4">
          <mxGeometry x="10" y="315" width="90" height="40" as="geometry" />
        </mxCell>
        <mxCell id="lxEsPna4k-PO0xknT9Wp-108" value="Costs" style="rounded=0;whiteSpace=wrap;html=1;" vertex="1" parent="3nuBFxr9cyL0pnOWT2aG-4">
          <mxGeometry x="120" y="168.5" width="90" height="40" as="geometry" />
        </mxCell>
        <mxCell id="3nuBFxr9cyL0pnOWT2aG-8" value="Data collection and management" style="swimlane;swimlaneHead=0;swimlaneBody=0;connectable=0;fillColor=#dae8fc;startSize=40;collapsible=0;recursiveResize=0;expand=0;fontStyle=1;strokeColor=#6c8ebf;" parent="3nuBFxr9cyL0pnOWT2aG-3" vertex="1">
          <mxGeometry x="260" width="230" height="470" as="geometry">
            <mxRectangle width="230" height="470" as="alternateBounds" />
          </mxGeometry>
        </mxCell>
        <mxCell id="lxEsPna4k-PO0xknT9Wp-340" value="" style="whiteSpace=wrap;html=1;strokeWidth=1;" vertex="1" parent="3nuBFxr9cyL0pnOWT2aG-8">
          <mxGeometry y="41" width="230" height="703" as="geometry" />
        </mxCell>
        <mxCell id="lxEsPna4k-PO0xknT9Wp-109" value="Cross-Sectional vs Longtidual" style="rounded=0;whiteSpace=wrap;html=1;" vertex="1" parent="3nuBFxr9cyL0pnOWT2aG-8">
          <mxGeometry x="10" y="60" width="90" height="40" as="geometry" />
        </mxCell>
        <mxCell id="lxEsPna4k-PO0xknT9Wp-136" value="Pre-built Monitoring tools" style="rounded=0;whiteSpace=wrap;html=1;" vertex="1" parent="3nuBFxr9cyL0pnOWT2aG-8">
          <mxGeometry x="120" y="60" width="90" height="40" as="geometry" />
        </mxCell>
        <mxCell id="lxEsPna4k-PO0xknT9Wp-137" value="Pre-built data cleaning tools" style="rounded=0;whiteSpace=wrap;html=1;" vertex="1" parent="3nuBFxr9cyL0pnOWT2aG-8">
          <mxGeometry x="120" y="110" width="90" height="40" as="geometry" />
        </mxCell>
        <mxCell id="lxEsPna4k-PO0xknT9Wp-328" value="Data Validation" style="rounded=0;whiteSpace=wrap;html=1;" vertex="1" parent="3nuBFxr9cyL0pnOWT2aG-8">
          <mxGeometry x="120" y="215" width="90" height="40" as="geometry" />
        </mxCell>
        <mxCell id="3nuBFxr9cyL0pnOWT2aG-11" value="End User Experience" style="swimlane;swimlaneHead=0;swimlaneBody=0;connectable=0;fillColor=#fff2cc;startSize=40;collapsible=0;recursiveResize=0;expand=0;fontStyle=1;strokeColor=#d6b656;" parent="3nuBFxr9cyL0pnOWT2aG-3" vertex="1">
          <mxGeometry x="490" width="230" height="470" as="geometry">
            <mxRectangle width="230" height="470" as="alternateBounds" />
          </mxGeometry>
        </mxCell>
        <mxCell id="lxEsPna4k-PO0xknT9Wp-395" value="" style="whiteSpace=wrap;html=1;strokeWidth=1;fillColor=#fff2cc;strokeColor=#d6b656;" vertex="1" parent="3nuBFxr9cyL0pnOWT2aG-11">
          <mxGeometry y="41" width="230" height="703" as="geometry" />
        </mxCell>
        <mxCell id="lxEsPna4k-PO0xknT9Wp-189" value="User Interface" style="rounded=0;whiteSpace=wrap;html=1;" vertex="1" parent="3nuBFxr9cyL0pnOWT2aG-11">
          <mxGeometry x="10" y="60" width="90" height="40" as="geometry" />
        </mxCell>
        <mxCell id="lxEsPna4k-PO0xknT9Wp-190" value="Accessible" style="rounded=0;whiteSpace=wrap;html=1;" vertex="1" parent="3nuBFxr9cyL0pnOWT2aG-11">
          <mxGeometry x="10" y="110" width="90" height="40" as="geometry" />
        </mxCell>
        <mxCell id="lxEsPna4k-PO0xknT9Wp-275" value="Desirable" style="rounded=0;whiteSpace=wrap;html=1;" vertex="1" parent="3nuBFxr9cyL0pnOWT2aG-11">
          <mxGeometry x="10" y="160" width="90" height="40" as="geometry" />
        </mxCell>
        <mxCell id="lxEsPna4k-PO0xknT9Wp-323" value="Findable" style="rounded=0;whiteSpace=wrap;html=1;" vertex="1" parent="3nuBFxr9cyL0pnOWT2aG-11">
          <mxGeometry x="10" y="210" width="90" height="40" as="geometry" />
        </mxCell>
        <mxCell id="lxEsPna4k-PO0xknT9Wp-324" value="Credible" style="rounded=0;whiteSpace=wrap;html=1;" vertex="1" parent="3nuBFxr9cyL0pnOWT2aG-11">
          <mxGeometry x="10" y="262" width="90" height="40" as="geometry" />
        </mxCell>
        <mxCell id="3nuBFxr9cyL0pnOWT2aG-15" value="Process" style="shape=tableRow;horizontal=0;swimlaneHead=0;swimlaneBody=0;top=0;left=0;bottom=0;right=0;fillColor=#f5f5f5;points=[[0,0.5],[1,0.5]];portConstraint=eastwest;startSize=30;collapsible=0;recursiveResize=0;expand=0;fontStyle=1;fontColor=#333333;strokeColor=#666666;" parent="3nuBFxr9cyL0pnOWT2aG-1" vertex="1">
          <mxGeometry y="470" width="720" height="273" as="geometry" />
        </mxCell>
        <mxCell id="3nuBFxr9cyL0pnOWT2aG-16" value="" style="swimlane;swimlaneHead=0;swimlaneBody=0;connectable=0;fillColor=#60a917;startSize=0;collapsible=0;recursiveResize=0;expand=0;fontStyle=1;strokeColor=#2D7600;fontColor=#ffffff;" parent="3nuBFxr9cyL0pnOWT2aG-15" vertex="1">
          <mxGeometry x="30" width="230" height="273" as="geometry">
            <mxRectangle width="230" height="273" as="alternateBounds" />
          </mxGeometry>
        </mxCell>
        <mxCell id="lxEsPna4k-PO0xknT9Wp-112" value="" style="edgeStyle=orthogonalEdgeStyle;rounded=0;orthogonalLoop=1;jettySize=auto;html=1;" edge="1" parent="3nuBFxr9cyL0pnOWT2aG-16" source="3nuBFxr9cyL0pnOWT2aG-17" target="lxEsPna4k-PO0xknT9Wp-111">
          <mxGeometry relative="1" as="geometry" />
        </mxCell>
        <mxCell id="3nuBFxr9cyL0pnOWT2aG-17" value="Online Survey platform is selected" style="rounded=0;whiteSpace=wrap;html=1;" parent="3nuBFxr9cyL0pnOWT2aG-16" vertex="1">
          <mxGeometry x="10" y="10" width="100" height="70" as="geometry" />
        </mxCell>
        <mxCell id="lxEsPna4k-PO0xknT9Wp-111" value="Establishing the on-premises or&amp;nbsp;SaaS" style="rounded=0;whiteSpace=wrap;html=1;" vertex="1" parent="3nuBFxr9cyL0pnOWT2aG-16">
          <mxGeometry x="10" y="103" width="100" height="67" as="geometry" />
        </mxCell>
        <mxCell id="lxEsPna4k-PO0xknT9Wp-119" value="" style="edgeStyle=orthogonalEdgeStyle;rounded=0;orthogonalLoop=1;jettySize=auto;html=1;" edge="1" parent="3nuBFxr9cyL0pnOWT2aG-16" source="lxEsPna4k-PO0xknT9Wp-114" target="lxEsPna4k-PO0xknT9Wp-118">
          <mxGeometry relative="1" as="geometry" />
        </mxCell>
        <mxCell id="lxEsPna4k-PO0xknT9Wp-114" value="Building the form" style="rounded=0;whiteSpace=wrap;html=1;" vertex="1" parent="3nuBFxr9cyL0pnOWT2aG-16">
          <mxGeometry x="10" y="180" width="100" height="67" as="geometry" />
        </mxCell>
        <mxCell id="lxEsPna4k-PO0xknT9Wp-118" value="Survey Deployed Online" style="shape=singleArrow;whiteSpace=wrap;html=1;arrowWidth=0.4;arrowSize=0.4;rounded=0;" vertex="1" parent="3nuBFxr9cyL0pnOWT2aG-16">
          <mxGeometry x="150" y="86.5" width="80" height="100" as="geometry" />
        </mxCell>
        <mxCell id="3nuBFxr9cyL0pnOWT2aG-18" value="" style="swimlane;swimlaneHead=0;swimlaneBody=0;connectable=0;fillColor=none;startSize=0;collapsible=0;recursiveResize=0;expand=0;fontStyle=1;" parent="3nuBFxr9cyL0pnOWT2aG-15" vertex="1">
          <mxGeometry x="260" width="230" height="273" as="geometry">
            <mxRectangle width="230" height="273" as="alternateBounds" />
          </mxGeometry>
        </mxCell>
        <mxCell id="lxEsPna4k-PO0xknT9Wp-124" value="" style="edgeStyle=orthogonalEdgeStyle;rounded=0;orthogonalLoop=1;jettySize=auto;html=1;" edge="1" parent="3nuBFxr9cyL0pnOWT2aG-18" source="lxEsPna4k-PO0xknT9Wp-121" target="lxEsPna4k-PO0xknT9Wp-123">
          <mxGeometry relative="1" as="geometry" />
        </mxCell>
        <mxCell id="lxEsPna4k-PO0xknT9Wp-121" value="Survey distributed via preferred channel" style="rounded=0;whiteSpace=wrap;html=1;" vertex="1" parent="3nuBFxr9cyL0pnOWT2aG-18">
          <mxGeometry x="65" y="30" width="100" height="70" as="geometry" />
        </mxCell>
        <mxCell id="lxEsPna4k-PO0xknT9Wp-126" value="" style="edgeStyle=orthogonalEdgeStyle;rounded=0;orthogonalLoop=1;jettySize=auto;html=1;" edge="1" parent="3nuBFxr9cyL0pnOWT2aG-18" source="lxEsPna4k-PO0xknT9Wp-123" target="lxEsPna4k-PO0xknT9Wp-125">
          <mxGeometry relative="1" as="geometry" />
        </mxCell>
        <mxCell id="lxEsPna4k-PO0xknT9Wp-123" value="Monitoring submissions" style="rounded=0;whiteSpace=wrap;html=1;" vertex="1" parent="3nuBFxr9cyL0pnOWT2aG-18">
          <mxGeometry x="65" y="110" width="100" height="70" as="geometry" />
        </mxCell>
        <mxCell id="lxEsPna4k-PO0xknT9Wp-125" value="Data quality&amp;nbsp;" style="rounded=0;whiteSpace=wrap;html=1;" vertex="1" parent="3nuBFxr9cyL0pnOWT2aG-18">
          <mxGeometry x="65" y="190" width="100" height="70" as="geometry" />
        </mxCell>
        <mxCell id="3nuBFxr9cyL0pnOWT2aG-23" value="" style="swimlane;swimlaneHead=0;swimlaneBody=0;connectable=0;fillColor=none;startSize=0;collapsible=0;recursiveResize=0;expand=0;fontStyle=1;" parent="3nuBFxr9cyL0pnOWT2aG-15" vertex="1">
          <mxGeometry x="490" width="230" height="273" as="geometry">
            <mxRectangle width="230" height="273" as="alternateBounds" />
          </mxGeometry>
        </mxCell>
        <mxCell id="lxEsPna4k-PO0xknT9Wp-127" value="User Able to open the survey" style="rounded=0;whiteSpace=wrap;html=1;" vertex="1" parent="3nuBFxr9cyL0pnOWT2aG-23">
          <mxGeometry x="10" y="10" width="100" height="70" as="geometry" />
        </mxCell>
        <mxCell id="lxEsPna4k-PO0xknT9Wp-129" value="User Interface is compatible with the end operator" style="rounded=0;whiteSpace=wrap;html=1;" vertex="1" parent="3nuBFxr9cyL0pnOWT2aG-23">
          <mxGeometry x="10" y="90" width="100" height="70" as="geometry" />
        </mxCell>
        <mxCell id="lxEsPna4k-PO0xknT9Wp-130" value="The Survey tool is working offline w/ poor connection" style="rounded=0;whiteSpace=wrap;html=1;" vertex="1" parent="3nuBFxr9cyL0pnOWT2aG-23">
          <mxGeometry x="10" y="170" width="100" height="70" as="geometry" />
        </mxCell>
        <mxCell id="lxEsPna4k-PO0xknT9Wp-131" value="Automatic Save is working" style="rounded=0;whiteSpace=wrap;html=1;" vertex="1" parent="3nuBFxr9cyL0pnOWT2aG-23">
          <mxGeometry x="120" y="10" width="100" height="70" as="geometry" />
        </mxCell>
        <mxCell id="lxEsPna4k-PO0xknT9Wp-132" value="Accessible" style="rounded=0;whiteSpace=wrap;html=1;" vertex="1" parent="3nuBFxr9cyL0pnOWT2aG-23">
          <mxGeometry x="120" y="90" width="100" height="70" as="geometry" />
        </mxCell>
        <mxCell id="lxEsPna4k-PO0xknT9Wp-133" value="&lt;span style=&quot;font-weight: normal;&quot;&gt;Language &lt;br&gt;support&lt;/span&gt;" style="rounded=0;whiteSpace=wrap;html=1;fontStyle=1" vertex="1" parent="3nuBFxr9cyL0pnOWT2aG-23">
          <mxGeometry x="120" y="170" width="100" height="70" as="geometry" />
        </mxCell>
        <mxCell id="lxEsPna4k-PO0xknT9Wp-122" value="" style="edgeStyle=orthogonalEdgeStyle;rounded=0;orthogonalLoop=1;jettySize=auto;html=1;" edge="1" parent="3nuBFxr9cyL0pnOWT2aG-15" source="lxEsPna4k-PO0xknT9Wp-118" target="lxEsPna4k-PO0xknT9Wp-121">
          <mxGeometry relative="1" as="geometry" />
        </mxCell>
        <mxCell id="lxEsPna4k-PO0xknT9Wp-45" value="Data storage and data export" style="swimlane;swimlaneHead=0;swimlaneBody=0;connectable=0;fillColor=#1ba1e2;startSize=40;collapsible=0;recursiveResize=0;expand=0;fontStyle=1;strokeWidth=0;strokeColor=#006EAF;fontColor=#ffffff;" vertex="1" parent="1">
          <mxGeometry x="730" y="119" width="230" height="510" as="geometry">
            <mxRectangle width="220" height="481" as="alternateBounds" />
          </mxGeometry>
        </mxCell>
        <mxCell id="lxEsPna4k-PO0xknT9Wp-444" value="" style="whiteSpace=wrap;html=1;strokeWidth=1;" vertex="1" parent="lxEsPna4k-PO0xknT9Wp-45">
          <mxGeometry y="41" width="230" height="703" as="geometry" />
        </mxCell>
        <mxCell id="lxEsPna4k-PO0xknT9Wp-135" value="" style="line;strokeWidth=1;html=1;" vertex="1" parent="lxEsPna4k-PO0xknT9Wp-45">
          <mxGeometry x="-720" y="465" width="950" height="10" as="geometry" />
        </mxCell>
        <mxCell id="lxEsPna4k-PO0xknT9Wp-325" value="Data Export Options" style="rounded=0;whiteSpace=wrap;html=1;" vertex="1" parent="lxEsPna4k-PO0xknT9Wp-45">
          <mxGeometry x="10" y="60" width="90" height="40" as="geometry" />
        </mxCell>
        <mxCell id="lxEsPna4k-PO0xknT9Wp-337" value="" style="line;strokeWidth=1;html=1;" vertex="1" parent="lxEsPna4k-PO0xknT9Wp-45">
          <mxGeometry y="-5" width="230" height="10" as="geometry" />
        </mxCell>
        <mxCell id="lxEsPna4k-PO0xknT9Wp-470" value="API compatability" style="rounded=0;whiteSpace=wrap;html=1;" vertex="1" parent="lxEsPna4k-PO0xknT9Wp-45">
          <mxGeometry x="10" y="111" width="90" height="40" as="geometry" />
        </mxCell>
        <mxCell id="lxEsPna4k-PO0xknT9Wp-471" value="Data breach Protocol" style="rounded=0;whiteSpace=wrap;html=1;" vertex="1" parent="lxEsPna4k-PO0xknT9Wp-45">
          <mxGeometry x="10" y="161" width="90" height="40" as="geometry" />
        </mxCell>
        <mxCell id="lxEsPna4k-PO0xknT9Wp-472" value="Compatible with IOM Data protection principles" style="rounded=0;whiteSpace=wrap;html=1;" vertex="1" parent="lxEsPna4k-PO0xknT9Wp-45">
          <mxGeometry x="10" y="211" width="90" height="79" as="geometry" />
        </mxCell>
        <mxCell id="lxEsPna4k-PO0xknT9Wp-473" value="Compatible with IOM Data protection principles" style="rounded=0;whiteSpace=wrap;html=1;" vertex="1" parent="lxEsPna4k-PO0xknT9Wp-45">
          <mxGeometry x="10" y="306" width="90" height="79" as="geometry" />
        </mxCell>
        <mxCell id="lxEsPna4k-PO0xknT9Wp-115" value="Database" style="shape=datastore;whiteSpace=wrap;html=1;strokeWidth=1;" vertex="1" parent="1">
          <mxGeometry x="840" y="694" width="60" height="60" as="geometry" />
        </mxCell>
        <mxCell id="lxEsPna4k-PO0xknT9Wp-134" value="" style="shape=doubleArrow;whiteSpace=wrap;html=1;strokeWidth=1;" vertex="1" parent="1">
          <mxGeometry x="730" y="694" width="100" height="60" as="geometry" />
        </mxCell>
      </root>
    </mxGraphModel>
  </diagram>
</mxfile>
